<svg width="864" height="864" viewBox="0 0 864 864" fill="none" xmlns="http://www.w3.org/2000/svg">
<path fill-rule="evenodd" clip-rule="evenodd" d="M432 168C316.8 168 244.8 225.6 216 340.8C259.2 283.2 309.6 261.6 367.2 276C400.064 284.208 423.552 308.064 449.552 334.448C491.904 377.44 540.928 427.2 648 427.2C763.2 427.2 835.2 369.6 864 254.4C820.8 312 770.4 333.6 712.8 319.2C679.936 310.992 656.448 287.136 630.448 260.752C588.096 217.76 539.072 168 432 168ZM216 427.2C100.8 427.2 28.8 484.8 0 600C43.2 542.4 93.6 520.8 151.2 535.2C184.064 543.424 207.552 567.264 233.552 593.648C275.904 636.64 324.928 686.4 432 686.4C547.2 686.4 619.2 628.8 648 513.6C604.8 571.2 554.4 592.8 496.8 578.4C463.936 570.192 440.448 546.336 414.448 519.952C372.096 476.96 323.072 427.2 216 427.2Z" fill="#06B6D4"/>
</svg>
