<?xml version="1.0" standalone="no"?>
<!DOCTYPE svg PUBLIC "-//W3C//DTD SVG 20010904//EN"
 "http://www.w3.org/TR/2001/REC-SVG-20010904/DTD/svg10.dtd">
<svg version="1.0" xmlns="http://www.w3.org/2000/svg"
 width="700.000000pt" height="700.000000pt" viewBox="0 0 700.000000 700.000000"
 preserveAspectRatio="xMidYMid meet">
<metadata>
Created by potrace 1.11, written by Peter Selinger 2001-2013
</metadata>
<g transform="translate(0.000000,700.000000) scale(0.100000,-0.100000)"
fill="#000000" stroke="none">
<path d="M3227 5624 c-619 -72 -1047 -369 -1307 -908 -55 -113 -114 -273 -148
-396 l-21 -75 36 45 c71 87 269 276 338 322 187 123 352 178 551 183 271 6
479 -67 694 -245 36 -30 162 -150 280 -266 249 -246 354 -337 488 -428 209
-140 415 -225 666 -276 135 -27 232 -35 446 -35 212 0 289 6 420 31 47 9 95
18 108 20 49 9 235 75 309 109 79 36 207 111 254 149 14 12 43 35 64 51 63 49
182 173 239 249 94 127 165 253 246 441 19 43 61 170 84 253 27 96 28 96 -42
6 -40 -52 -191 -201 -246 -243 -119 -92 -301 -183 -413 -206 -16 -3 -41 -9
-58 -13 -16 -3 -97 -6 -180 -6 -181 1 -284 22 -420 89 -153 74 -227 135 -535
439 -118 117 -253 244 -300 283 -282 234 -570 362 -935 418 -140 22 -471 27
-618 9z"/>
<path d="M1578 3535 c-2 -1 -37 -5 -80 -9 -87 -7 -321 -52 -349 -67 -11 -5
-19 -8 -19 -5 0 3 -37 -9 -82 -25 -427 -156 -729 -454 -925 -914 -24 -57 -97
-270 -112 -330 l-10 -40 41 50 c77 93 263 270 333 317 138 91 288 154 410 174
61 9 277 11 325 1 102 -19 152 -32 216 -57 163 -65 269 -147 554 -427 124
-122 236 -231 250 -243 14 -12 39 -34 56 -50 40 -36 224 -175 244 -184 8 -3
38 -20 65 -36 168 -102 378 -179 585 -215 220 -39 573 -44 770 -11 14 2 55 9
93 15 206 34 499 158 649 275 14 12 39 31 55 43 15 12 61 53 100 92 194 191
337 432 438 734 51 154 68 214 56 201 -5 -5 -37 -43 -72 -84 -178 -209 -373
-350 -575 -415 -214 -69 -509 -52 -711 40 -152 70 -247 147 -558 453 -121 120
-234 228 -250 242 -17 14 -53 44 -80 66 -202 167 -522 322 -744 360 -14 3 -42
9 -61 14 -19 5 -62 12 -95 15 -33 4 -71 9 -85 12 -28 5 -427 12 -432 8z"/>
</g>
</svg>
